# xmcd CD database file
# Copyright (C) 1993-1998 Ti Kan
#
# Track frame offsets:
# 150
# 20156
# 43999
# 61691
# 78628
# 103310
# 134629
# 156829
# 174365
# 190549
#
# Disc length: 2745 seconds
# Revision: 0
# Processed by: cddbd v1.4b41PL1 Copyright (c) Steve Scherf et al.
# Submitted via: CDSpectrumPro v3.2.328
#
DISCID=880ab70a
DTITLE=Eddie Mathini - Música New Age para sentirse Bien  (Vol. 1)
DYEAR=1900
DGENRE=
TTITLE0=Eleanor Rigby
TTITLE1=You Won´t see Me
TTITLE2=Norwegian Wood
TTITLE3=Something
TTITLE4=With A Little Help Of My Friends
TTITLE5=Hey Jude
TTITLE6=Let It Be
TTITLE7=A Hard Day´s Night
TTITLE8=Help!
TTITLE9=All My Loving
EXTD=Exitos de los Beatles
EXTT0=
EXTT1=
EXTT2=
EXTT3=
EXTT4=
EXTT5=
EXTT6=
EXTT7=
EXTT8=
EXTT9=
PLAYORDER=
